<?xml version="1.0" encoding="UTF-8" standalone="no"?>
<!DOCTYPE svg PUBLIC "-//W3C//DTD SVG 1.1//EN"
"http://www.w3.org/Graphics/SVG/1.1/DTD/svg11.dtd">
<svg viewBox="0 0 1258 909" version="1.1" xmlns="http://www.w3.org/2000/svg" xmlns:xlink="http://www.w3.org/1999/xlink">
<defs>
<clipPath id="c0"><path d="M0,909V0H1258.9V909Z"/></clipPath>
<clipPath id="c1"><path d="M843.3,718.1V21.4h268.9V718.1Z"/></clipPath>
<style type="text/css"><![CDATA[
.g0{
fill: #FFFFFF;
}
.g1{
fill: #01336E;
}
.g2{
fill: none;
stroke: #707070;
stroke-width: 1.527;
stroke-linecap: butt;
stroke-linejoin: miter;
}
.g3{
fill: none;
stroke: #707070;
stroke-width: 1.527;
stroke-linecap: butt;
stroke-linejoin: miter;
stroke-opacity: 0.109799996;
}
.g4{
fill: none;
stroke: #01336E;
stroke-width: 1.527;
stroke-linecap: butt;
stroke-linejoin: miter;
}
]]></style>
</defs>
<path d="M0,0H1258.9V909H0V0Z" class="g0"/>
<image x="735" y="257" width="701" height="394" xlink:href="shade/1.png"/>
<path clip-path="url(#c0)" d="M21.4,820.9c0,0,4.9,-92.5,93.3,-66.6c88.4,25.8,88.2,-6.8,122.2,-23.1c34,-16.3,-6.7,-163.1,65.2,-149.5C374,595.4,432.4,495,470.5,621.2c38.1,126.3,0,108.6,120.8,133.1c120.8,24.4,53,-169.7,167,-104.5c114.1,65.1,136.1,42.1,202.5,-28.6c66.4,-70.6,41.3,-195.5,141.2,-167c99.8,28.5,-10.2,-77.6,54.9,-115.5c65.2,-37.9,73.4,-115.5,73.4,-115.5M21.4,820.9c0,0,4.9,-147.8,93.4,-106.4c88.4,41.3,88.2,-10.8,122.3,-36.8c34,-26,-6.7,-260.6,65.2,-238.8c72,21.8,130.5,-138.7,168.6,63.1c38.2,201.7,0,173.4,120.9,212.5c120.9,39,53,-271.1,167.2,-167C873.2,651.7,895.2,614.9,961.7,502C1028.1,389.1,1003,189.6,1102.9,235.2c99.9,45.5,-10.1,-124,55.1,-184.5c65.2,-60.5,73.4,-184.4,73.4,-184.4M21.4,820.9c0,0,4.9,-12.5,93.3,-9c88.4,3.5,88.2,-1,122.2,-3.2c34,-2.2,-6.7,-22,65.2,-20.2c71.9,1.9,130.3,-11.7,168.4,5.4c38.1,17,0,14.6,120.8,18c120.8,3.3,53,-23,167,-14.2c114.1,8.8,136.1,5.7,202.5,-3.8c66.4,-9.6,41.3,-26.5,141.2,-22.6c99.8,3.8,-10.2,-10.5,54.9,-15.7c65.2,-5.1,73.4,-15.6,73.4,-15.6M21.4,820.9c0,0,4.9,-349.5,93.3,-251.7c88.4,97.7,88.2,-25.4,122.2,-87c34,-61.6,-6.7,-616.4,65.2,-564.9C374,-31.1,432.4,-410.6,470.5,66.6c38.1,477.2,0,410.2,120.8,502.6c120.8,92.3,53,-641.1,167,-394.9C872.4,420.6,894.4,333.6,960.8,66.6c66.4,-267,41.3,-738.8,141.2,-631.1c99.8,107.8,-10.2,-293.2,54.9,-436.4c65.2,-143.2,73.4,-436.4,73.4,-436.4M21.4,820.9c0,0,4.9,-265.4,93.3,-191.2c88.4,74.3,88.2,-19.3,122.2,-66c34,-46.8,-6.7,-468.3,65.2,-429.1C374,173.8,432.4,-114.3,470.5,248c38.1,362.4,0,311.6,120.8,381.7c120.8,70.2,53,-486.9,167,-299.9C872.4,516.9,894.4,450.8,960.8,248c66.4,-202.8,41.3,-561.1,141.2,-479.2c99.8,81.8,-10.2,-222.7,54.9,-331.5c65.2,-108.7,73.4,-331.4,73.4,-331.4" class="g3"/>
<g clip-path="url(#c1)" opacity="0.38">
<path d="M844.1,22.2h267.4V717.3H844.1V22.2Z" class="g1"/>
<path d="M844.1,22.2h267.4V717.3H844.1V22.2Z" class="g2"/>
</g>
<g clip-path="url(#c0)">
<path d="M.8,.8H20.6V920.5H.8V.8Z" class="g1"/>
<path d="M.8,.8H20.6V920.5H.8V.8Z" class="g4"/>
<path d="M.8,888.4H1278v19.9H.8V888.4Z" class="g1"/>
<path d="M.8,888.4H1278v19.9H.8V888.4Z" class="g2"/>
</g>
<path d="M.8,2.3H1258.1V20.6H.8V2.3Z" class="g1"/>
<path d="M.8,2.3H1258.1V20.6H.8V2.3Z" class="g2"/>
<g clip-path="url(#c0)">
<path d="M1232.2,-12.9h25.9V908.3h-25.9V-12.9Z" class="g1"/>
<path d="M1232.2,-12.9h25.9V908.3h-25.9V-12.9Z" class="g2"/>
</g>
<image x="87" y="63" width="197" height="195" xlink:href="shade/2.png"/>
<path d="M89.4,767.7H454.5m359,0H582.8" class="g4"/>
</svg>